<svg id="SvgjsSvg1001" width="81.28421020507812" height="81.281494140625" xmlns="http://www.w3.org/2000/svg" version="1.1" xmlns:xlink="http://www.w3.org/1999/xlink" xmlns:svgjs="http://svgjs.com/svgjs" viewBox="0 0 81.28421020507812 81.281494140625"><defs id="SvgjsDefs1002"></defs><rect id="SvgjsRect1008" width="81.28421020507812" height="81.281494140625" fill="transparent"></rect><g id="SvgjsG1009" transform="matrix(1,0,0,1,-30.579999923706055,-41.86577224731445)"><title>0015_related_rings_verti</title><path id="color_2" d="M79.91,73.81H56a8.7,8.7,0,0,0-8.7,8.69l.32,22.44A24,24,0,0,1,56,58.55H71.21C77.83,58.55,80.9,65.26,79.91,73.81ZM62.61,91H86.55a8.7,8.7,0,0,0,8.7-8.69L94.93,59.9a24,24,0,0,1-8.38,46.4H71.31C64.69,106.3,61.62,99.59,62.61,91Z" fill="#b1b1b1"></path><path id="color_1" d="M95.08,58.67a25.32,25.32,0,0,0-47.69,0A25.38,25.38,0,0,0,30.58,82.5c0,11.84,6.81,21.51,17,24.43a25.33,25.33,0,0,0,47.48-.57,25.32,25.32,0,0,0,0-47.69ZM82,107.88a14.67,14.67,0,0,1-10.35,4.18c-8,0-14.42-6.14-14.42-13.69V75.24H61.1V97.76a10.13,10.13,0,0,0,10.12,10.12H82ZM45.84,82.5h0V92.82A14.7,14.7,0,0,1,41.69,82.5c0-8,6.14-14.43,13.69-14.43H78.49v4.3H56A10.14,10.14,0,0,0,45.84,82.5Zm15-25.38a14.65,14.65,0,0,1,10.39-4.23c8,0,14.43,6.14,14.43,13.7V89.76H81.35V67.24a10.11,10.11,0,0,0-9.86-10.09v0ZM78.49,75.24V89.76H64V75.24ZM64,96.88V92.62H86.48A10.12,10.12,0,0,0,96.6,82.51h0V71.68a14.65,14.65,0,0,1,4.63,10.78c0,8-6.14,14.42-13.7,14.42Zm7.26-52.16A22.55,22.55,0,0,1,93.75,67.24V82.5h0a7.25,7.25,0,0,1-4.23,6.58V66.59c0-9.66-8.18-17.51-18.24-17.51a18.28,18.28,0,0,0-15.31,8,25.44,25.44,0,0,0-5.05.5A22.47,22.47,0,0,1,71.22,44.72ZM33.44,82.5A22.54,22.54,0,0,1,56,60H71.22a7.27,7.27,0,0,1,6.61,4.28H55.38c-9.65,0-17.51,8.18-17.51,18.24a18.31,18.31,0,0,0,8,15.26,25.7,25.7,0,0,0,.69,5.79C38.62,100.39,33.44,92.3,33.44,82.5Zm37.78,37.78A22.54,22.54,0,0,1,48.7,97.76V82.45a7.26,7.26,0,0,1,4.71-6.73V98.37c0,9.65,8.19,17.51,18.24,17.51a18.32,18.32,0,0,0,15.3-8,25.69,25.69,0,0,0,4.59-.48A22.47,22.47,0,0,1,71.22,120.28ZM86.48,105H71.22a7.26,7.26,0,0,1-6.62-4.32H87.54c9.66,0,17.51-8.18,17.51-18.24a18.3,18.3,0,0,0-8.39-15.57l-.07.1a25.28,25.28,0,0,0-.49-4.8A22.49,22.49,0,0,1,86.48,105Z" fill="#000000"></path></g></svg>